<svg xmlns="http://www.w3.org/2000/svg" viewBox="0 0 200 60">
  <!-- Base shape -->
  <rect x="0" y="0" width="200" height="60" rx="10" fill="#ffffff" />
  
  <!-- Teal border -->
  <rect x="1" y="1" width="198" height="58" rx="9" fill="none" stroke="#0d9488" stroke-width="2" />
  
  <!-- Icon: Dumbbell -->
  <g transform="translate(20, 30) scale(0.9)">
    <path d="M3,15 L7,15 M7,15 L7,8 M7,8 L17,8 M17,8 L17,15 M17,15 L21,15" 
          stroke="#0d9488" stroke-width="4" stroke-linecap="round" />
    <circle cx="7" cy="15" r="5" fill="#14b8a6" />
    <circle cx="17" cy="15" r="5" fill="#14b8a6" />
  </g>
  
  <!-- Icon: Apple -->
  <g transform="translate(40, 30) scale(0.7)">
    <path d="M12,2 C14,5 16,5 18,5 C20,5 24,5 24,12 C24,19 19,24 18,24 C17,24 16,23 14,23 C12,23 11,24 10,24 C9,24 4,20 4,12 C4,4 8,4 10,5 C12,6 10,2 12,2 Z" 
          fill="#14b8a6" />
    <path d="M15,1 C15,4 12,6 10,6" 
          stroke="#0d9488" stroke-width="1.5" fill="none" stroke-linecap="round" />
  </g>
  
  <!-- Arabic Text: "خطة اللياقة والتغذية" -->
  <text x="180" y="30" font-family="Tajawal, sans-serif" font-size="16" font-weight="700" fill="#0d9488" text-anchor="end">
    خطة اللياقة والتغذية
  </text>
  
  <!-- Arabic Text: "الشخصية" in smaller font -->
  <text x="180" y="48" font-family="Tajawal, sans-serif" font-size="12" font-weight="500" fill="#14b8a6" text-anchor="end">
    الشخصية
  </text>
  
  <!-- Decorative elements -->
  <circle cx="184" cy="15" r="2" fill="#14b8a6" />
  <circle cx="190" cy="15" r="2" fill="#14b8a6" />
  <circle cx="196" cy="15" r="2" fill="#14b8a6" />
</svg>